# xmcd CD database file
#
# Track frame offsets:
#	150
#	18218
#	34855
#	48021
#	73601
#	96816
#	107618
#	118927
#	134676
#	146587
#	166606
#	182234
#	197280
#	212965
#	233272
#
# Disc length: 3373 seconds
#
# Revision: 0
# Processed by: cddbd v1.5PL3 Copyright (c) Steve Scherf et al.
# Submitted via: CDex 1.51
#
DISCID=c60d2b0f
DTITLE=Arauco Libre - Sojourn
DYEAR=2002
DGENRE=Salsa
TTITLE0=Karikima
TTITLE1=Embrujando
TTITLE2=Taquirari de Jaina
TTITLE3=Blanca Palomita
TTITLE4=Sokkoy Tikkitay
TTITLE5=Abtao
TTITLE6=Ventolera
TTITLE7=Penquenita
TTITLE8=Quisiera Papel de Piata
TTITLE9=En Alturas
TTITLE10=Purimuy
TTITLE11=Tierra de Condores
TTITLE12=Tienes que Volar Paloma
TTITLE13=No Llores
TTITLE14=Cancion de la Esperanza
EXTD=YEAR: 2002
EXTT0=
EXTT1=
EXTT2=
EXTT3=
EXTT4=
EXTT5=
EXTT6=
EXTT7=
EXTT8=
EXTT9=
EXTT10=
EXTT11=
EXTT12=
EXTT13=
EXTT14=
PLAYORDER=
